<?xml version="1.0"?>
<svg xmlns="http://www.w3.org/2000/svg" viewBox="0 0 512 512" width="512" height="512"><g id="solid"><path d="M431.149,298.553l-25.064,5.371a287.268,287.268,0,0,0-116.533,54.621L264,378.6v-.186l38.964-43.329A349.7,349.7,0,0,0,387.79,159.263a346.373,346.373,0,0,0-111.116,163.4L264,362.3v-8.217l15.229-83.759A415.9,415.9,0,0,0,256,40a415.892,415.892,0,0,0-23.228,230.322L248,354.082v5.806l-11.49-35.929A355.424,355.424,0,0,0,122.447,156.248a354.977,354.977,0,0,0,86.764,180.1l36.1,40.142-22.861-17.946a287.268,287.268,0,0,0-116.533-54.621l-25.064-5.371A284.351,284.351,0,0,0,223.39,381.537l13.6,3.247-8.542.7a152,152,0,0,0-95.007,43.968L130.894,432h13.643a151.219,151.219,0,0,0,85.843-26.6L248,393.328V464a8,8,0,0,0,16,0V393.328l17.62,12.077A151.219,151.219,0,0,0,367.463,432h13.643l-2.549-2.55a152,152,0,0,0-95.007-43.968l-8.542-.7,13.6-3.247A284.351,284.351,0,0,0,431.149,298.553Z"/></g></svg>
